<?xml version="1.0" encoding="UTF-8" standalone="no" ?>
<!DOCTYPE svg PUBLIC "-//W3C//DTD SVG 1.1//EN" "http://www.w3.org/Graphics/SVG/1.1/DTD/svg11.dtd">
<svg xmlns="http://www.w3.org/2000/svg" xmlns:xlink="http://www.w3.org/1999/xlink" version="1.1" width="1280" height="1024" viewBox="0 0 1280 1024" xml:space="preserve">
<desc>Created with Fabric.js 5.3.0</desc>
<defs>
</defs>
<g transform="matrix(1 0 0 1 640 512)" id="background-logo"  >
<rect style="stroke: none; stroke-width: 0; stroke-dasharray: none; stroke-linecap: butt; stroke-dashoffset: 0; stroke-linejoin: miter; stroke-miterlimit: 4; fill: rgb(12,28,60); fill-rule: nonzero; opacity: 1;"  paint-order="stroke"  x="-640" y="-512" rx="0" ry="0" width="1280" height="1024" />
</g>
<g transform="matrix(1.9211538461538462 0 0 1.9211538461538462 640 408.13526158799965)" id="logo-logo"  >
<g style=""  paint-order="stroke"   >
		<g transform="matrix(0.24355285424025475 0 0 0.2435528542402547 0 0)"  >
<linearGradient id="SVGID_101_90078" gradientUnits="userSpaceOnUse" gradientTransform="matrix(1 0 0 1 0 0)"  x1="573.92" y1="178.55" x2="573.92" y2="875.39">
<stop offset="0%" style="stop-color:rgb(231,201,66);stop-opacity: 1"/>
<stop offset="19%" style="stop-color:rgb(229,196,63);stop-opacity: 1"/>
<stop offset="43%" style="stop-color:rgb(225,181,56);stop-opacity: 1"/>
<stop offset="68%" style="stop-color:rgb(217,156,44);stop-opacity: 1"/>
<stop offset="95%" style="stop-color:rgb(206,122,26);stop-opacity: 1"/>
<stop offset="100%" style="stop-color:rgb(204,115,23);stop-opacity: 1"/>
</linearGradient>
<path style="stroke: none; stroke-width: 1; stroke-dasharray: none; stroke-linecap: butt; stroke-dashoffset: 0; stroke-linejoin: miter; stroke-miterlimit: 4; fill: url(#SVGID_101_90078); fill-rule: nonzero; opacity: 1;"  paint-order="stroke"  transform=" translate(-573.92, -526.94)" d="M 415.07 410.07 L 470 447.73 L 432.7 461.62 L 411.25 443.22 C 405.14576010595033 437.9977037024961 396.69085179856154 436.49350317519696 389.16 439.29 L 363.8 448.73 C 360.43602226053804 449.9833260475544 357.43134886885184 452.04367351613917 355.05 454.73 C 355.81779193880504 440.9064154148272 364.6910756377962 428.84644159483616 377.66 424 Z M 460.21 393.26 L 515.1 430.91999999999996 L 579 407.15 L 524.11 369.47999999999996 Z M 569.21 352.68 L 624.1 390.34000000000003 L 688 366.56 L 633.12 328.9 Z M 690.0600000000001 307.68 L 678.24 312.08 L 733.13 349.74 L 741.73 346.54 L 734.9 328.19 C 728.1755430032653 310.165778495507 708.1242877730965 300.9925865245528 690.09 307.69 Z M 396.34 664.62 C 398.08352660887886 673.7018593104398 403.3642379118395 681.7187806092435 411.01991171404586 686.9063341949619 C 418.6755855162522 692.0938877806805 428.0787932712382 694.0269224138415 437.15999999999997 692.28 L 479.67999999999995 684.11 L 466.59 616 L 389.83 630.76 Z M 581.42 584.44 L 569.42 521.82 L 376 559 L 388 621.61 Z M 488.8299999999999 682.35 L 712.8299999999999 639.28 L 699.7399999999999 571.17 L 475.7399999999999 614.24 Z M 447.74 487.9 C 452.7519436820251 493.89754356673 454.2214235796606 502.0971255513131 451.6041984961391 509.4619229802179 C 448.98697341261754 516.8267204091227 442.67271809400364 522.2601995581405 435 523.75 L 384.61 533.43 C 379.93425852872673 534.3328963511193 375.0917843300543 533.6942512031784 370.81 531.6099999999999 L 374.31 549.8499999999999 L 458.40999999999997 533.68 L 484.40999999999997 476.02 L 444.33 483.72999999999996 Z M 531.65 466.9 L 505.65 524.56 L 572.5899999999999 511.68999999999994 L 598.5899999999999 454.03 Z M 645.89 444.9 L 619.89 502.55999999999995 L 686.8299999999999 489.69999999999993 L 712.8299999999999 432.0299999999999 Z M 760.14 422.9 L 734.14 480.55999999999995 L 770.14 473.6499999999999 L 760.36 423 Z M 590.57 582.68 L 783.9200000000001 545.51 L 771.9200000000001 482.89 L 578.53 520.06 Z M 722 637.52 L 764.52 629.34 C 773.6013180161651 627.596627511781 781.6174520510544 622.3155003774184 786.8034056846908 614.6594198231676 C 791.9893593183272 607.0033392689168 793.919914277076 597.6000597226168 792.17 588.52 L 785.66 554.65 L 708.9 569.41 Z M 433.28 515 L 382.89 524.69 C 379.44963985452904 525.3550476715221 375.88604523220147 524.6238146173578 372.98559512591595 522.6576621520362 C 370.08514501963043 520.6915096867145 368.0862476435401 517.6520495880058 367.43 514.21 L 359.16 471.21000000000004 C 358.49748805214494 467.7713823962085 359.22850071461255 464.2104279050134 361.19213832978613 461.310920977546 C 363.1557759449597 458.41141405007863 366.1910928004446 456.4110070945168 369.63000000000005 455.75000000000006 L 396.21000000000004 450.64000000000004 C 400.9237502750134 449.7372786087199 405.75604854093143 451.46419344067635 408.83000000000004 455.15000000000003 L 440.9200000000001 493.58000000000004 C 443.914143339513 497.1676550883947 444.78831779031583 502.0709773937498 443.2184678315401 506.47231065513387 C 441.6486178727645 510.87364391651795 437.8687282701168 514.1169732541623 433.28 515 Z M 383.11 470 C 382.2862745423413 465.72722268581924 378.1551065231895 462.9309215258393 373.88218202804126 463.7538831682838 C 369.609257532893 464.57684481072823 366.8122179296283 468.7075128968296 367.63441573056053 472.98058443640326 C 368.45661353149285 477.253655975977 372.58678155254756 480.05143393314665 376.86 479.23 C 381.132092418715 478.40316705298943 383.9282942620678 474.2737361707259 383.11 470 Z M 431.3 498.67 C 430.4762745423413 494.39722268581926 426.3451065231895 491.60092152583934 422.07218202804125 492.4238831682838 C 417.799257532893 493.24684481072825 415.0022179296283 497.3775128968296 415.82441573056053 501.6505844364033 C 416.64661353149285 505.923655975977 420.77678155254756 508.72143393314667 425.05 507.90000000000003 C 427.1135268047687 507.5059426532651 428.93427433798183 506.30421132224836 430.1078168102199 504.5617354594692 C 431.281359282458 502.8192595966901 431.710529551643 500.6803129747061 431.3 498.62 Z M 343.25 396.07 C 386.5879842258338 396.07959316073305 425.79324549439946 370.3519249176844 443.03200386486526 330.5900565180224 C 460.27076223533106 290.82818811836034 452.25069936286354 244.62598020702197 422.62 213 L 818.29 213 C 856.7123671056186 213.04407462714886 887.8504053148464 244.1776396230153 887.9 282.6 L 887.9 580.41 L 905.9 580.41 L 905.9 282.6 C 905.8558860328061 234.23423639692692 866.6557683235253 195.03859307615312 818.29 195 L 400.78 195 C 361.60024905407766 170.52375750872983 311.23318521916406 173.4692019625337 275.1734632679394 202.34541680236893 C 239.11374131671462 231.22163164220416 225.23057682226374 279.72703861916625 240.55130985544085 323.30931104732304 C 255.87204288861795 366.8915834754798 297.0532713250575 396.03987994107933 343.25 396 Z M 292.1 355.07 C 288.1413210296827 359.03107962880176 282.1289414973388 360.09551230625067 277.0509601667738 357.7342845277052 C 271.9729788362088 355.3730567491598 268.91227857790284 350.08970189693053 269.39000000000004 344.51 C 269.72171076423564 350.7214179424355 274.9128772747724 355.5545091090656 281.1321319117971 355.44218526223773 C 287.3513865488218 355.3298614154099 292.364646865434 350.3124715598218 292.47184983961824 344.0931265453492 C 292.57905281380243 337.8737815308766 287.74168896221073 332.6865962698327 281.53000000000003 332.36 C 287.11155424041164 331.87748735849476 292.3991733650724 334.93647195644286 294.7631912207145 340.0156437162945 C 297.12720907635656 345.09481547614615 296.0630711374114 351.1101220539408 292.1 355.07 Z M 347.29 383 C 350.14680168199544 382.99450118583997 352.89910092220566 381.92495484897074 355.01000000000005 380 C 351.402116361463 384.2812324066217 345.5034658108975 385.85171737649154 340.24441462820363 383.9312601583955 C 334.98536344550973 382.0108029402994 331.48682581332 377.0087297906517 331.48682581332 371.40999999999997 C 331.48682581332 365.81127020934827 334.98536344550973 360.8091970597006 340.24441462820363 358.8887398416045 C 345.5034658108975 356.96828262350846 351.402116361463 358.5387675933783 355.01000000000005 362.82 C 351.1703990999101 359.40478666649625 345.53625151562267 358.93698728459503 341.1859848588045 361.67220157234084 C 336.8357182019863 364.4074158600867 334.8156891472937 369.6877508761096 336.22961624758767 374.6280977607288 C 337.64354334788163 379.56844464534805 342.15133893139813 382.9805164852232 347.29 383 Z M 408 216.81 C 405.98516745216614 214.78935055023473 403.29000903084847 213.59150236298242 400.44 213.45 C 406.01954525598643 212.97062156247625 411.30379832809234 216.0297345614746 413.666544103353 221.10699379766214 C 416.02928987861355 226.18425303384964 414.9666739919242 232.196935492458 411.00680474219115 236.1568047421911 C 407.04693549245803 240.1166739919242 401.03425303384967 241.17928987861356 395.95699379766216 238.81654410335292 C 390.87973456147466 236.45379832809232 387.8206215624763 231.1695452559864 388.3 225.58999999999997 C 388.5730157182898 230.73474023693842 392.220429228345 235.07657202509213 397.24091128461214 236.23314005625434 C 402.26139334087924 237.38970808741652 407.4408187285854 235.08131443746424 409.93724603500027 230.57457055836562 C 412.4336733414151 226.06782667926697 411.6433805921154 220.45261822718265 408 216.80999999999997 Z M 413.22 355.09000000000003 C 408.8457470956271 359.4566737593037 402.0435280966829 360.24366200323414 396.78776623005695 356.99114061315424 C 391.53200436343104 353.7386192230743 389.2014505609992 347.2998264185455 391.1578085793353 341.43684155623356 C 393.1141665976715 335.57385669392164 398.84422246146374 331.8247243138233 405 332.38 C 398.78996204648695 332.7119241386456 393.95760459568896 337.90119431972164 394.06829272877377 344.11911142716866 C 394.17898086185863 350.3370285346157 399.1929714653843 355.3510191381414 405.4108885728313 355.4617072712262 C 411.62880568027833 355.572395404311 416.8180758613544 350.740037953513 417.15 344.53 C 417.47579275778105 348.4535627793717 416.04782956323476 352.32004773691244 413.25 355.09 Z M 438.87 283.27000000000004 C 438.8621973518888 280.4106489274064 437.79312899859605 277.65601613708856 435.87 275.54 C 440.1512324066217 279.14788363853705 441.72171737649154 285.04653418910254 439.8012601583955 290.30558537179644 C 437.8808029402994 295.56463655449033 432.87872979065173 299.06317418668004 427.28000000000003 299.06317418668004 C 421.68127020934827 299.06317418668004 416.6791970597006 295.56463655449033 414.7587398416045 290.30558537179644 C 412.83828262350846 285.0465341891026 414.40876759337823 279.14788363853705 418.69 275.54 C 415.24700389419854 279.37049147880407 414.7562956446943 285.01777054736846 417.48699333296526 289.38471195858824 C 420.2176910212362 293.751653369808 425.50983609553026 295.7828490711135 430.4610686898058 294.3643347246447 C 435.41230128408137 292.9458203781759 438.8260010963765 288.42042436722693 438.83 283.27000000000004 Z M 344.78 189.87000000000003 C 348.71559917633624 189.86495407780956 352.4510307298064 191.60449328163145 354.97999999999996 194.62000000000003 C 350.35572813990086 190.45810399055142 343.26584265475816 190.70671541366377 338.9444495351643 195.18229695526213 C 334.62305641557055 199.6578784968605 334.62305641557055 206.75212150313956 338.9444495351643 211.22770304473792 C 343.26584265475816 215.70328458633628 350.35572813990086 215.95189600944863 354.97999999999996 211.79000000000002 C 351.001813397947 216.51064433840577 344.3027978233524 217.88213253410873 338.78952577493743 215.10467273590422 C 333.27625372652244 212.32721293769967 330.3913913997908 206.12758723162534 331.81726416071814 200.12114581593488 C 333.2431369216455 194.11470440024442 338.60663449865166 189.87316184109665 344.78 189.87 Z M 332.09 264.82000000000005 C 338.3824260456367 261.9361435087785 345.62900411163884 261.9874078306199 351.88 264.96000000000004 C 341.4330796667122 261.6749900943156 330.2613628365789 267.2552992475504 326.6130093826506 277.580944583592 C 322.9646559287223 287.9065899196335 328.1508506364637 299.26662916392115 338.3425881942794 303.27386263392464 C 348.53432575209507 307.28109610392806 360.0687891133341 302.49536082639816 364.43 292.45000000000005 C 361.51745985691 302.9214599467801 351.7936469387795 310.0211946167173 340.93260278711216 309.60636520881354 C 330.07155863544483 309.19153580090983 320.9176226332403 301.3707797173937 318.81230161347463 290.7076663396854 C 316.706980593709 280.0445529619771 322.20162555051814 269.3315866664583 332.09000000000003 264.82000000000005 Z M 275.46 217.3 C 278.2319650443364 214.52247211925405 282.09040458697393 213.11308006620334 286 213.45 C 279.7885820575645 213.7817107642356 274.95549089093436 218.97287727477237 275.06781473776226 225.19213191179705 C 275.18013858459017 231.41138654882172 280.1975284401782 236.42464686543397 286.4168734546508 236.53184983961816 C 292.6362184691234 236.63905281380238 297.8234037301673 231.8016889622107 298.15 225.58999999999997 C 298.6748406963742 231.74137256708255 294.90707857043486 237.44821753074027 289.0441114073532 239.38224396806052 C 283.18114424427165 241.31627040538078 276.75732914964567 238.97133746242835 273.51910143161246 233.71503424992355 C 270.2808737135793 228.45873103741872 271.0756878385386 221.66664878058074 275.44 217.29999999999998 Z M 245.80999999999997 285.74 C 245.8104702049577 281.80562056050377 247.54897686410027 278.07240626087133 250.55999999999997 275.54 C 246.38813393709276 280.16640379587443 246.63255251481633 287.26654968526225 251.11268834974902 291.59511312246286 C 255.59282418468175 295.92367655966353 262.6971758153182 295.92367655966353 267.1773116502509 291.59511312246286 C 271.65744748518364 287.26654968526225 271.9018660629072 280.16640379587443 267.72999999999996 275.54 C 272.4506443384057 279.518186602053 273.8221325341087 286.21720217664756 271.04467273590416 291.73047422506255 C 268.26721293769964 297.24374627347754 262.0675872316253 300.1286086002092 256.0611458159348 298.70273583928184 C 250.05470440024436 297.2768630783545 245.8131618410966 291.91336550134827 245.80999999999995 285.74 Z M 804.59 657.87 C 761.2268667667322 657.8379549330978 721.9905513109031 683.5748312153087 704.7465425213588 723.3618455737468 C 687.5025337318147 763.148859932185 695.5481589173738 809.3781057262563 725.22 841 L 329.55 841 C 291.12373432340416 840.9559141791524 259.98408582084755 809.8162656765959 259.94 771.39 L 259.94 476 L 242 476 L 242 771.3 C 242.05510805947802 819.6462534862959 281.233746513704 858.824891940522 329.58 858.88 L 747.06 858.88 C 786.2397509459222 883.3562424912702 836.6068147808359 880.4107980374663 872.6665367320605 851.534583197631 C 908.7262586832853 822.6583683577959 922.6094231777362 774.1529613808339 907.288690144559 730.5706889526771 C 891.967957111382 686.9884165245203 850.7867286749424 657.8401200589205 804.5899999999999 657.88 Z M 806.1600000000001 669.2 C 810.0907760704647 669.1940533671302 813.8222284397178 670.9297829284903 816.3500000000001 673.94 C 811.7244722386226 669.7823903039362 804.6373628343212 670.0339667419623 800.3182776719153 674.5090900716554 C 795.9991925095094 678.9842134013485 795.9991925095094 686.0757865986516 800.3182776719153 690.5509099283447 C 804.6373628343212 695.0260332580377 811.7244722386226 695.2776096960639 816.3500000000001 691.12 C 812.3710113836344 695.8415973227466 805.6702383558235 697.2125731031073 800.1565486177394 694.4331743984442 C 794.6428588796554 691.6537756937811 791.7596395529991 685.4516002629367 793.1888044788434 679.4446610005442 C 794.6179694046875 673.4377217381517 799.9853883097051 669.1985298271109 806.1600000000001 669.2 Z M 736.8 696.63 C 739.5809510644982 693.8463656652918 743.4496520715084 692.4335760827886 747.37 692.77 C 741.1583110377893 693.0965962698327 736.3209471861976 698.2837815308766 736.4281501603818 704.5031265453492 C 736.535353134566 710.7224715598218 741.5486134511783 715.7398614154098 747.7678680882029 715.8521852622378 C 753.9871227252277 715.9645091090656 759.1782892357644 711.1314179424354 759.51 704.92 C 760.0348406963742 711.0713725670826 756.2670785704348 716.7782175307402 750.4041114073533 718.7122439680604 C 744.5411442442717 720.6462704053807 738.1173291496457 718.3013374624284 734.8791014316125 713.0450342499236 C 731.6408737135794 707.7887310374188 732.4356878385386 700.9966487805808 736.8 696.63 Z M 750.43 815.08 C 748.4134146990611 813.060481929871 745.7200198305966 811.8598548522618 742.87 811.71 C 748.4486702744798 811.2303321152847 753.7324672876991 814.2881118283958 756.0960653043028 819.3640400909799 C 758.4596633209064 824.4399683535639 757.3991861365622 830.4519493741847 753.4415461282691 834.4128493824846 C 749.483906119976 838.3737493907845 743.4728003172137 839.4391763844426 738.3949276265547 837.0797586070128 C 733.3170549358957 834.7203408295829 730.2549256655559 829.4390633342655 730.73 823.86 C 731.0030157182898 829.0047402369385 734.6504292283449 833.3465720250922 739.6709112846121 834.5031400562543 C 744.6913933408792 835.6597080874166 749.8708187285854 833.3513144374642 752.3672460350002 828.8445705583656 C 754.863673341415 824.3378266792671 754.0733805921154 818.7226182271827 750.4300000000001 815.08 Z M 707.16 765.08 C 707.1524745163399 761.146033111713 708.8882225732436 757.4108790652111 711.9 754.88 C 707.7281339370927 759.5064037958745 707.9725525148164 766.6065496852623 712.452688349749 770.9351131224629 C 716.9328241846817 775.2636765596635 724.0371758153182 775.2636765596635 728.5173116502509 770.9351131224629 C 732.9974474851836 766.6065496852623 733.2418660629072 759.5064037958745 729.0699999999999 754.88 C 733.7965922633017 758.855277423447 735.1735504531957 765.5567227153292 732.3973318974198 771.073616365513 C 729.621113341644 776.5905100156967 723.4188371825752 779.477922924072 717.4099259963983 778.0508660318945 C 711.4010148102215 776.6238091397171 707.1592619638968 771.2560427841925 707.16 765.08 Z M 808.63 862.3000000000001 C 811.4866207847788 862.293541799284 814.2385865417601 861.2241250543431 816.35 859.3000000000001 C 812.7424526540904 863.5905878806045 806.8373788959792 865.1681024760187 801.5707308016017 863.2482170460622 C 796.3040827072242 861.3283316161056 792.7995457985455 856.3206705409942 792.7995457985455 850.7150000000001 C 792.7995457985455 845.109329459006 796.3040827072242 840.1016683838945 801.5707308016017 838.181782953938 C 806.8373788959792 836.2618975239815 812.7424526540904 837.8394121193957 816.35 842.1300000000001 C 812.5185904184328 838.6861755858306 806.8696619294251 838.1961435029344 802.5024600332612 840.9287564604343 C 798.1352581370971 843.6613694179341 796.1057860772798 848.9558729522244 797.5274996466345 853.9074743602607 C 798.9492132159892 858.8590757682971 803.4783375728055 862.2704621546045 808.63 862.2700000000001 Z M 813 786.83 C 803.1151563441018 791.3384571507698 791.4279858409491 788.4700697044074 784.7536291609837 779.8974806619722 C 778.0792724810183 771.3248916195371 778.1641165660347 759.2911722280335 784.9586862779502 750.81354623889 C 791.7532559898656 742.3359202497467 803.4797098993148 739.6326112363754 813.3 744.2800000000001 C 802.8533870800501 741.0025554080772 791.6875601283401 746.5867373294396 788.0434244821325 756.9111569230258 C 784.399288835925 767.2355765166121 789.5858717068353 778.5915501591309 799.7752310492015 782.5978353142995 C 809.9645903915675 786.6041204694681 821.4965582141216 781.8216004866575 825.8599999999999 771.7800000000001 C 824.0071917459526 778.4501492180384 819.299528267768 783.9595065544831 813 786.83 Z M 849.72 704.9200000000001 C 850.0517107642356 711.1314179424355 855.2428772747724 715.9645091090657 861.4621319117971 715.8521852622378 C 867.6813865488218 715.7398614154099 872.694646865434 710.7224715598219 872.8018498396182 704.5031265453493 C 872.9090528138024 698.2837815308767 868.0716889622107 693.0965962698328 861.86 692.7700000000001 C 867.4386702744798 692.2903321152847 872.7224672876991 695.3481118283959 875.0860653043028 700.4240400909799 C 877.4496633209064 705.499968353564 876.3891861365622 711.5119493741847 872.4315461282691 715.4728493824847 C 868.473906119976 719.4337493907846 862.4628003172137 720.4991763844426 857.3849276265547 718.1397586070128 C 852.3070549358957 715.780340829583 849.2449256655559 710.4990633342655 849.72 704.9200000000001 Z M 874.64 834.4200000000001 C 870.2733512194193 838.7843121614613 863.4812689625812 839.5791262864207 858.2249657500764 836.3408985683875 C 852.9686625375716 833.1026708503543 850.6237295946192 826.6788557557284 852.5577560319396 820.8158885926467 C 854.4917824692598 814.9529214295652 860.1986274329174 811.1851593036258 866.35 811.71 C 860.139962046487 812.0419241386456 855.307604595689 817.2311943197217 855.4182927287738 823.4491114271688 C 855.5289808618586 829.6670285346157 860.5429714653843 834.6810191381414 866.7608885728314 834.7917072712262 C 872.9788056802784 834.902395404311 878.1680758613544 830.0700379535131 878.5 823.86 C 878.8274151834254 827.7856974913383 877.3950621404084 831.6541496995887 874.59 834.42 Z M 888.74 778.4200000000001 C 883.1378432262056 778.4234080288913 878.1313445075544 774.923694065423 876.2102033038309 769.6612432477729 C 874.2890621001073 764.3987924301227 875.8632765578046 758.4966846636439 880.15 754.8900000000001 C 875.9923903039361 759.5155277613776 876.2439667419623 766.6026371656791 880.7190900716553 770.9217223280849 C 885.1942134013484 775.2408074904909 892.2857865986515 775.2408074904909 896.7609099283446 770.9217223280849 C 901.2360332580377 766.6026371656791 901.4876096960638 759.5155277613776 897.3299999999999 754.8900000000001 C 901.6167234421953 758.4966846636439 903.1909378998926 764.3987924301227 901.269796696169 769.6612432477729 C 899.3486554924455 774.923694065423 894.3421567737943 778.4234080288913 888.7399999999999 778.4200000000001 Z" stroke-linecap="round" />
</g>
		<g transform="matrix(0.24355285424025475 0 0 0.2435528542402547 -0.0012167205428568195 0.007306585627190998)"  >
<linearGradient id="SVGID_102_90079" gradientUnits="userSpaceOnUse" gradientTransform="matrix(1 0 0 1 0 0)"  x1="573.92" y1="232.72" x2="573.92" y2="821.22">
<stop offset="0%" style="stop-color:rgb(156,99,24);stop-opacity: 1"/>
<stop offset="100%" style="stop-color:rgb(150,85,16);stop-opacity: 1"/>
</linearGradient>
<path style="stroke: none; stroke-width: 1; stroke-dasharray: none; stroke-linecap: butt; stroke-dashoffset: 0; stroke-linejoin: miter; stroke-miterlimit: 4; fill: url(#SVGID_102_90079); fill-rule: nonzero; opacity: 1;"  paint-order="stroke"  transform=" translate(-573.9150042854286, -526.97)" d="M 296 746.73 C 296 804.96 328.14 805.34 358.69 807.45 C 389.24 809.5600000000001 681 821.22 681 821.22 L 336.6 821.22 C 279.43 821.22 282.43 773.57 282.43 717.46 L 282.43 481.63 C 282.43 481.63 296 688.5 296 746.73 Z M 865.4 572.31 L 865.4 336.48 C 865.4 280.36 868.4 232.72000000000003 811.24 232.72000000000003 L 466.85 232.72000000000003 C 466.85 232.72000000000003 758.6 244.37000000000003 789.1600000000001 246.48000000000002 C 819.7200000000001 248.59 851.8500000000001 248.97000000000003 851.8500000000001 307.21000000000004 C 851.8500000000001 365.45000000000005 865.4 572.31 865.4 572.31 Z M 361.54 669.2 C 367.19 711.48 388.83000000000004 733.74 415.68 728.09 C 442.53 722.44 698 660.33 698 660.33 C 698 660.33 493.19 699.27 434.77 709.86 C 376.34999999999997 720.45 377.61 662.86 370.77 621.61 C 364.95 586.44 343.19 482.89 343.19 482.89 C 343.19 482.89 355.89 626.92 361.54 669.2 Z" stroke-linecap="round" />
</g>
</g>
</g>
<g transform="matrix(1.9211538461538462 0 0 1.9211538461538462 640 663.5601991422866)" id="text-logo"  >
<g style=""  paint-order="stroke"   >
		<g transform="matrix(1 0 0 1 -5.684342e-14 0)" id="text-logo-path-0"  >
<path style="stroke: none; stroke-width: 0; stroke-dasharray: none; stroke-linecap: butt; stroke-dashoffset: 0; stroke-linejoin: miter; stroke-miterlimit: 4; fill: rgb(230,198,64); fill-rule: nonzero; opacity: 1;"  paint-order="stroke"  transform=" translate(-181.8, 16.105)" d="M 10.08 0 L 10.08 -12.72 L 22.56 -12.72 L 22.56 -19.44 L 10.08 -19.44 L 10.08 -25.49 L 25.44 -25.49 L 25.44 -32.21 L 6.24 -32.21 L 6.24 -32.16 L 2.4 -32.16 L 2.4 0 Z M 45.79 0 L 45.79 -32.16 L 38.11 -32.16 L 38.11 0 Z M 58.46 0 L 80.54 0 L 80.54 -6.72 L 66.14 -6.72 L 66.14 -32.16 L 58.46 -32.16 Z M 100.9 0 L 100.9 -15.26 L 107.18 0 L 115.58 0 L 121.92 -15.36 L 121.92 0 L 129.6 0 L 129.6 -32.16 L 120.48 -32.16 L 111.41 -10.08 L 102.29 -32.16 L 93.22 -32.16 L 93.22 0 Z M 167.42 0 L 167.42 -12.72 L 179.9 -12.72 L 179.9 -19.44 L 167.42 -19.44 L 167.42 -25.49 L 182.78 -25.49 L 182.78 -32.21 L 163.58 -32.21 L 163.58 -32.16 L 159.74 -32.16 L 159.74 0 Z M 203.14 0 L 203.14 -32.16 L 195.46 -32.16 L 195.46 0 Z M 223.49 0 L 223.49 -19.87 L 235.2 0 L 244.61 0 L 244.61 -32.16 L 236.93 -32.16 L 236.93 -12.19 L 225.17 -32.16 L 215.81 -32.16 L 215.81 0 Z M 269.38 -6.72 L 264.96 -6.72 L 264.96 -25.44 L 269.38 -25.44 C 274.37 -25.44 278.3 -21.31 278.3 -16.08 C 278.3 -10.9 274.37 -6.72 269.38 -6.72 Z M 257.28 0 L 269.86 0 C 275.76 0 280.94 -3.12 283.82 -8.06 C 285.26 -10.51 285.98 -13.2 285.98 -16.08 C 285.98 -21.84 282.96 -27.07 278.02 -30 C 275.57 -31.44 272.83 -32.16 269.86 -32.16 L 257.28 -32.16 Z M 298.66 0 L 321.7 0 L 321.7 -6.72 L 306.34 -6.72 L 306.34 -12.72 L 318.82 -12.72 L 318.82 -19.44 L 306.34 -19.44 L 306.34 -25.44 L 321.7 -25.44 L 321.7 -32.16 L 298.66 -32.16 Z M 361.2 0 L 353.95 -11.62 C 357.79 -13.2 360.48 -16.99 360.48 -21.5 C 360.48 -27.31 355.97 -31.92 350.21 -32.16 L 334.37 -32.16 L 334.37 0 L 342.05 0 L 342.05 -10.8 L 345.12 -10.8 L 351.89 0 Z M 342.05 -17.52 L 342.05 -25.44 L 348.86 -25.44 C 351.22 -25.44 352.8 -23.81 352.8 -21.46 C 352.8 -19.1 351.22 -17.52 348.86 -17.52 Z" stroke-linecap="round" />
</g>
</g>
</g>
<g transform="matrix(1.9211538461538462 0 0 1.9211538461538462 640.1882730769228 747.098635887545)" id="tagline-7b80b7d2-bdde-4003-bf18-825f3e566543-logo"  >
<g style=""  paint-order="stroke"   >
		<g transform="matrix(1 0 0 1 0 0)" id="tagline-7b80b7d2-bdde-4003-bf18-825f3e566543-logo-path-0"  >
<path style="stroke: none; stroke-width: 0; stroke-dasharray: none; stroke-linecap: butt; stroke-dashoffset: 0; stroke-linejoin: miter; stroke-miterlimit: 4; fill: rgb(212,134,35); fill-rule: nonzero; opacity: 1;"  paint-order="stroke"  transform=" translate(-223.84500000000003, 9.38)" d="M 3.67 0 L 3.67 -15.57 L 14.7 0 L 17.11 0 L 17.11 -18.76 L 14.87 -18.76 L 14.87 -3.16 L 3.81 -18.76 L 1.4 -18.76 L 1.43 -18.73 L 1.43 0 Z M 41.33 0.31 C 44.91 0.31 48.08 -1.6 49.78 -4.56 C 50.65 -6.05 51.07 -7.64 51.07 -9.38 C 51.07 -12.85 49.22 -15.99 46.23 -17.75 C 44.74 -18.62 43.09 -19.07 41.33 -19.07 C 37.74 -19.07 34.58 -17.19 32.87 -14.22 C 32 -12.74 31.58 -11.12 31.58 -9.38 C 31.58 -5.91 33.43 -2.77 36.43 -1.01 C 37.91 -0.14 39.56 0.31 41.33 0.31 Z M 41.33 -1.82 C 38.61 -1.82 36.18 -3.25 34.83 -5.57 C 34.16 -6.72 33.82 -8.01 33.82 -9.38 C 33.82 -12.15 35.25 -14.59 37.58 -15.96 C 38.72 -16.63 39.98 -16.97 41.33 -16.97 C 44.04 -16.97 46.48 -15.51 47.82 -13.19 C 48.5 -12.04 48.83 -10.75 48.83 -9.38 C 48.83 -6.61 47.4 -4.17 45.08 -2.83 C 43.93 -2.16 42.67 -1.82 41.33 -1.82 Z M 85.06 0 L 85.06 -14.2 L 91.76 0 L 93.97 0 L 100.69 -14.25 L 100.69 0 L 102.93 0 L 102.93 -18.76 L 100.63 -18.76 L 92.88 -2.3 L 85.09 -18.76 L 82.82 -18.76 L 82.82 0 Z M 127.15 0.31 C 130.73 0.31 133.9 -1.6 135.6 -4.56 C 136.47 -6.05 136.89 -7.64 136.89 -9.38 C 136.89 -12.85 135.04 -15.99 132.05 -17.75 C 130.56 -18.62 128.91 -19.07 127.15 -19.07 C 123.56 -19.07 120.4 -17.19 118.69 -14.22 C 117.82 -12.74 117.4 -11.12 117.4 -9.38 C 117.4 -5.91 119.25 -2.77 122.25 -1.01 C 123.73 -0.14 125.38 0.31 127.15 0.31 Z M 127.15 -1.82 C 124.43 -1.82 122 -3.25 120.65 -5.57 C 119.98 -6.72 119.64 -8.01 119.64 -9.38 C 119.64 -12.15 121.07 -14.59 123.4 -15.96 C 124.54 -16.63 125.8 -16.97 127.15 -16.97 C 129.86 -16.97 132.3 -15.51 133.64 -13.19 C 134.32 -12.04 134.65 -10.75 134.65 -9.38 C 134.65 -6.61 133.22 -4.17 130.9 -2.83 C 129.75 -2.16 128.49 -1.82 127.15 -1.82 Z M 159.38 0 L 167.22 -18.76 L 164.81 -18.76 L 158.17 -2.88 L 151.54 -18.76 L 149.13 -18.76 L 156.97 0 Z M 183.93 0 L 183.93 -18.76 L 181.69 -18.76 L 181.69 0 Z M 198.41 0 L 211.85 0 L 211.85 -1.96 L 200.65 -1.96 L 200.65 -8.4 L 210.17 -8.4 L 210.17 -10.36 L 200.65 -10.36 L 200.65 -16.8 L 211.85 -16.8 L 211.85 -18.76 L 198.41 -18.76 Z M 261.55 -4.12 C 259.76 -1.43 256.73 0.31 253.34 0.31 C 249.79 0.31 246.65 -1.6 244.92 -4.56 C 244.05 -6.05 243.6 -7.64 243.6 -9.38 C 243.6 -12.85 245.42 -15.99 248.42 -17.75 C 249.9 -18.62 251.55 -19.07 253.34 -19.07 C 256.82 -19.07 259.9 -17.25 261.66 -14.42 L 259.76 -13.33 C 258.44 -15.57 256.03 -16.97 253.34 -16.97 C 250.66 -16.97 248.19 -15.51 246.85 -13.19 C 246.18 -12.04 245.84 -10.75 245.84 -9.38 C 245.84 -6.61 247.3 -4.17 249.59 -2.83 C 250.74 -2.16 251.97 -1.82 253.34 -1.82 C 255.92 -1.82 258.24 -3.14 259.62 -5.24 Z M 277.14 0 L 279.08 -4.62 L 288.48 -4.62 L 290.42 0 L 292.82 0 L 284.98 -18.76 L 282.58 -18.76 L 274.74 0 Z M 279.89 -6.58 L 283.78 -15.88 L 287.67 -6.58 Z M 309.57 0 L 309.57 -15.57 L 320.6 0 L 323.01 0 L 323.01 -18.76 L 320.77 -18.76 L 320.77 -3.16 L 309.71 -18.76 L 307.3 -18.76 L 307.33 -18.73 L 307.33 0 Z M 357 0 L 357 -8.4 L 368.2 -8.4 L 368.2 0 L 370.44 0 L 370.44 -18.76 L 368.2 -18.76 L 368.2 -10.36 L 357 -10.36 L 357 -18.76 L 354.76 -18.76 L 354.76 0 Z M 387.16 0 L 387.16 -18.76 L 384.92 -18.76 L 384.92 0 Z M 408.97 0 C 412.41 0 415.44 -1.82 417.12 -4.7 C 417.96 -6.13 418.38 -7.7 418.38 -9.38 C 418.38 -12.74 416.61 -15.79 413.73 -17.5 C 412.3 -18.34 410.7 -18.76 408.97 -18.76 L 401.63 -18.76 L 401.63 0 Z M 403.87 -1.99 L 403.87 -16.8 L 408.97 -16.8 C 411.54 -16.8 413.9 -15.37 415.18 -13.1 C 415.83 -11.96 416.14 -10.72 416.14 -9.38 C 416.14 -5.26 412.97 -1.99 408.97 -1.99 Z M 432.85 0 L 446.29 0 L 446.29 -1.96 L 435.09 -1.96 L 435.09 -8.4 L 444.61 -8.4 L 444.61 -10.36 L 435.09 -10.36 L 435.09 -16.8 L 446.29 -16.8 L 446.29 -18.76 L 432.85 -18.76 Z" stroke-linecap="round" />
</g>
</g>
</g>
</svg>